<?xml version="1.0" encoding="utf-8"?>
<!-- Generator: Adobe Illustrator 19.0.0, SVG Export Plug-In . SVG Version: 6.00 Build 0)  -->
<svg version="1.1" id="Layer_1" xmlns="http://www.w3.org/2000/svg" xmlns:xlink="http://www.w3.org/1999/xlink" x="0px" y="0px"
	 viewBox="0 0 511.6 511.6" style="enable-background:new 0 0 511.6 511.6;" xml:space="preserve">
<style type="text/css">
	.st0{fill:#FFFFFF;}
</style>
<g id="XMLID_4_">
	<path id="XMLID_19_" d="M440.5,253.5c0-15.1,0-29,0-44.4c14.7,0,28.4-0.9,41.8,0.5c4.5,0.5,10.4,6.4,11.9,11.1
		c4,12.1,7.2,24.7,8.5,37.3c4.9,47.8,5.5,95.7-3.4,143.2c-0.5,2.5-1,5-1.7,7.5c-7.1,25.5-8.8,26.8-34.9,26.8c-6.8,0-13.6,0-21.9,0
		c0-17.3,0-33.7,0-50.8c-9,0-16.5,0-25.2,0c0,16.7,0,32.9,0,50.8c-5.3,0-9.4,0-13.6,0c-74.1,0-148.2,0.2-222.3-0.4
		c-6.2,0-14-3.5-18.3-8.1c-22-23.3-43.6-47.2-64.4-71.6c-8.2-9.6-16.8-15-29.5-12.9c-2.9,0.5-5.9,0.1-10.8,0.1c0-12.9,0-25,0-37.7
		c-8.3,0-14.6,0-22.2,0c0,19.3,0,38.8,0,59.4c-10,0-18.7,0-28.5,0c0-58.3,0-116.7,0-176c8.9,0,17.7,0,27.8,0c0,21.7,0,42.9,0,64.8
		c7.9,0,14.5,0,22.6,0c0-18.1,0-35.4,0-55.5c26.2,9.5,38.8-7.9,50.7-23.7c14-18.5,30.7-25.8,53.8-23.2c16.4,1.9,33.1,0.4,50.4,0.4
		c0-11.9,0-22.5,0-34.8c-22,0-43.9,0-66.6,0c0-11.1,0-20.3,0-30.6c58.7,0,117.1,0,176.2,0c0,9.7,0,19,0,30c-22.1,0-44.1,0-66.9,0
		c0,12.3,0,22.8,0,35.5c15.9,0,31.5-0.1,47.1,0c15.3,0.2,33.5-4.3,45.3,2.4c11.8,6.6,17.4,24.4,25.5,37.5
		c9.7,15.6,20.3,30.8,28.4,47.3c6.6,13.4,15.7,17.8,29.4,15.7C432.5,253.7,435.5,253.8,440.5,253.5z"/>
</g>
</svg>
