<?xml version="1.0" encoding="utf-8"?>
<!-- Generator: Adobe Illustrator 19.0.0, SVG Export Plug-In . SVG Version: 6.00 Build 0)  -->
<svg version="1.1" id="Layer_1" xmlns="http://www.w3.org/2000/svg" xmlns:xlink="http://www.w3.org/1999/xlink" x="0px" y="0px"
	 viewBox="0 0 511.6 511.6" style="enable-background:new 0 0 511.6 511.6;" xml:space="preserve">
<style type="text/css">
	.st0{fill:#FFFFFF;}
</style>
<g id="XMLID_4_">
	<path id="XMLID_37_" d="M1,454.6c0-107.2,0-214.5,0-321.7c5.3-14.6,15.9-19.4,31.1-19.2c45,0.6,89.9,0.2,134.9,0.2
		c1.9,0,3.9,0,6.2,0c0-10.6-0.1-20.6,0.1-30.5c0.1-4.5,0.3-9.1,1.4-13.3c5-19.2,20-30.6,40.8-30.7c27.6-0.2,55.3-0.1,82.9,0
		c13.7,0.1,25.3,4.9,33.8,16.1c6.2,8,8.2,17.3,8.2,27.1c0.1,10.3,0,20.6,0,31.4c2.4,0,4.4,0,6.3,0c46.1,0,92.3,0.4,138.4-0.2
		c16.1-0.2,27.7,11.5,27.6,27.6c-0.4,101.7-0.4,203.5,0,305.2c0,14-8.3,27.8-27.9,27.8c-152-0.1-304.1-0.1-456.1-0.1
		c-3.5,0-7-0.4-10.3-1.3C8.9,470.4,4,463.3,1,454.6z M256.7,440.9c81.1,0.1,146.9-65.6,147-146.8c0.1-81-65.9-147.1-146.9-147.2
		c-80.8-0.1-147,66.1-147,147C109.8,375.1,175.4,440.8,256.7,440.9z M298.7,81.1c-28.3,0-56,0-83.7,0c0,11,0,21.7,0,32.4
		c28.1,0,56,0,83.7,0C298.7,102.5,298.7,92,298.7,81.1z"/>
	
	
	
	<path id="XMLID_31_" d="M292.2,259c11.6,0,23,0,34.5,0c16.4,0,23.8,7.5,23.8,23.7c0,8.2,0,16.3,0,24.5c-0.1,13.5-8,21.4-21.4,21.5
		c-12.3,0-24.6,0-37.5,0c0,2.9,0,5.5,0,8.1c0,10.3,0.1,20.6,0,31c-0.2,11.6-8.5,19.7-20,19.8c-9.8,0.1-19.6,0.1-29.5,0
		c-11.9-0.1-20.1-8.2-20.3-20.1c-0.2-11.1,0-22.3,0-33.5c0-1.6,0-3.3,0-5.4c-12.1,0-23.7-0.5-35.2,0.1
		c-16.7,0.9-24.6-10.4-23.7-23.8c0.5-8,0.1-16,0.1-24c0.1-14,8-21.9,22.1-22c10.5-0.1,21,0,31.5,0c1.6,0,3.2-0.1,5.4-0.2
		c0-12.5-0.4-24.8,0.2-37.1c0.2-4.6,1.7-9.5,4-13.5c3.4-5.9,9.7-7.9,16.3-8c9.5-0.1,19-0.2,28.5,0c13.2,0.4,20.7,8.4,20.8,21.7
		c0.1,11.8,0,23.6,0.1,35.5C291.8,257.7,291.9,258,292.2,259z"/>
</g>
</svg>
