<?xml version="1.0" encoding="utf-8"?>
<!-- Generator: Adobe Illustrator 19.0.0, SVG Export Plug-In . SVG Version: 6.00 Build 0)  -->
<svg version="1.1" id="Layer_1" xmlns="http://www.w3.org/2000/svg" xmlns:xlink="http://www.w3.org/1999/xlink" x="0px" y="0px"
	 viewBox="0 0 511.6 511.6" style="enable-background:new 0 0 511.6 511.6;" xml:space="preserve">
<style type="text/css">
	.st0{fill:#FFFFFF;}
</style>
<g>
	<path d="M35,490c0-156.5,0-313.1,0-469.6c3.5-10.5,10.5-17.5,21-21c40,0,79.9,0,119.9,0c0,11.6,0,23.2,0,35.2c-2.5,0-4.5,0-6.5,0
		c-26.3,0-52.6,0-78.9,0c-13.3,0-20.3,7.1-20.3,20.4c0,133.5,0,267.1,0,400.6c0,13,7.1,20.1,20.1,20.2c110.2,0,220.5,0,330.7,0
		c12.2,0,19.5-7.4,19.5-19.6c0-133.7,0-267.4,0-401.1c0-13.4-7-20.4-20.3-20.4c-26.6,0-53.3,0-79.9,0c-1.8,0-3.5-0.1-5.5-0.2
		c0-12,0-23.5,0-35c40,0,79.9,0,119.9,0c16.1,5.5,21.2,17.1,21.2,33.5c-0.3,149.4-0.2,298.7-0.2,448.1c0,19.4-10.5,29.9-29.9,29.9
		c-106.1,0-212.2,0-318.2,0c-21.8,0-43.6,0-65.4,0c-9.3,0-16.9-3.7-22.2-11.3C37.8,496.7,36.6,493.2,35,490z"/>
	<path class="st0" d="M334.7-0.6c0,11.5,0,22.9,0,35c2,0.1,3.7,0.2,5.5,0.2c26.6,0,53.3,0,79.9,0c13.3,0,20.3,7,20.3,20.4
		c0,133.7,0,267.4,0,401.1c0,12.3-7.3,19.6-19.5,19.6c-110.2,0-220.5,0-330.7,0c-12.9,0-20-7.2-20.1-20.2c0-133.5,0-267.1,0-400.6
		c0-13.3,7.1-20.4,20.3-20.4c26.3,0,52.6,0,78.9,0c2,0,3.9,0,6.5,0c0-12,0-23.6,0-35.2c6,0,12,0,18,0c0,17.5,0,35.1,0,52.6
		c41.3,0,82,0,122.9,0c0-17.8,0-35.2,0-52.6C322.7-0.6,328.7-0.6,334.7-0.6z M88.1,457.7c111.8,0,223.1,0,334.2,0
		c0-135.3,0-270.2,0-405.2c-29.3,0-58.3,0-87.2,0c-3.8,13.9-8.7,17.5-23.2,17.5c-37.8,0-75.6,0-113.4,0c-14.5,0-19.2-3.5-23.1-17.4
		c-29,0-58.1,0-87.4,0C88.1,187.7,88.1,322.5,88.1,457.7z"/>
	<path d="M316.7-0.6c0,17.4,0,34.9,0,52.6c-40.9,0-81.6,0-122.9,0c0-17.5,0-35.1,0-52.6C234.8-0.6,275.8-0.6,316.7-0.6z"/>
	<path class="st0" d="M35,490c1.6,3.2,2.9,6.7,4.9,9.6c5.3,7.7,12.9,11.3,22.2,11.3c21.8,0,43.6,0,65.4,0c106.1,0,212.2,0,318.2,0
		c19.4,0,29.9-10.5,29.9-29.9c0-149.4-0.1-298.7,0.2-448.1c0-16.5-5.1-28-21.2-33.5c7.3,0,14.7,0,22,0c0,170.9,0,341.7,0,512.6
		c-147.2,0-294.4,0-441.6,0C35,504.6,35,497.3,35,490z"/>
	<path class="st0" d="M56-0.6c-10.5,3.5-17.5,10.5-21,21c0-7,0-14,0-21C42-0.6,49-0.6,56-0.6z"/>
	<path d="M88.1,457.7c0-135.1,0-269.9,0-405.1c29.3,0,58.3,0,87.4,0c3.9,13.9,8.6,17.4,23.1,17.4c37.8,0,75.6,0,113.4,0
		c14.5,0,19.4-3.6,23.2-17.5c28.9,0,57.8,0,87.2,0c0,135,0,269.9,0,405.2C311.1,457.7,199.8,457.7,88.1,457.7z M360,246.3
		c4.4,0,8.8,0,13.1,0c13-0.1,22.6-8.9,23.1-21.9c0.5-11.8,0.5-23.7,0-35.5c-0.5-13.1-10-21.7-23.1-21.8c-4-0.1-8-0.2-12,0.1
		c-3.3,0.2-5.1-1.1-6.9-3.7c-10.5-15-21.2-29.8-31.8-44.8c-6.5-9.1-15.1-13.6-26.3-13.5c-27.1,0.1-54.3,0.1-81.4,0
		c-11.4-0.1-20.1,4.5-26.7,13.8c-8.1,11.6-17.1,22.6-24.4,34.7c-6.2,10.4-13.6,14.8-26,13.6c-13.4-1.2-22.9,8.9-23.3,22.5
		c-0.3,11.3-0.3,22.6,0,34c0.4,13.3,9.9,22.3,23.1,22.5c4.3,0.1,8.6,0,13,0c0.5,1.1,0.9,2,1.3,2.9c5.8,14.7,18.2,23.6,33.1,23.7
		c14.5,0,27.2-8.8,32.8-23.3c1.1-2.8,2.5-3.3,5.1-3.3c21.5,0.1,43,0.1,64.4-0.1c3.4,0,4.8,1.1,6,4.2c6.9,17.5,25.6,26.5,43.2,20.7
		C348.6,267.1,356,258.4,360,246.3z M189.4,405.1c-5,0-10,0-15,0c-16.8,0-33.6,0-50.4,0c-4.2,0-8,1.6-8.8,5.8
		c-0.6,2.9,0.2,6.9,1.9,9c1.7,2,5.6,2.8,8.5,2.9c16.3,0.3,32.6,0.1,48.9,0.1c26.3,0,52.6,0,78.9,0c6.4,0,10.2-3,10.6-8.2
		c0.4-5.8-3.5-9.5-10.2-9.5C232.3,405.1,210.8,405.1,189.4,405.1z M189.5,361.1c-13.5,0-27,0-40.4,0c-8.7,0-17.3-0.1-26,0
		c-5,0.1-8.6,3.7-8.8,8.4c-0.2,4.6,3.2,8.4,8.2,9.1c1.1,0.2,2.3,0.1,3.5,0.1c41.9,0,83.9,0,125.8,0c1.8,0,3.7,0,5.4-0.4
		c4.5-1,6.7-4,6.7-8.6c0-5.3-3.8-8.6-10-8.6C232.4,361.1,211,361.1,189.5,361.1z M188.8,317c-13.1,0-26.3,0-39.4,0
		c-8.8,0-17.6-0.1-26.5,0.1c-5,0.1-8.6,3.8-8.7,8.5c-0.1,4.6,3.4,8.4,8.4,8.9c1.7,0.2,3.3,0.1,5,0.1c32.8,0,65.6,0,98.3,0
		c9.7,0,19.3,0.1,29-0.1c6.8-0.1,11-6.1,8.5-12c-1.8-4.2-5.3-5.5-9.7-5.5C232.1,317.1,210.5,317,188.8,317z M343.7,380.7
		c-3.5-5.3-6.6-10-9.8-14.6c-3.5-5.2-8.4-6.5-12.8-3.7c-4.6,2.9-5.3,8.1-1.8,13.5c4.9,7.5,9.9,15,14.9,22.4c6.1,9.1,12,9.2,18.5,0.1
		c11.1-15.6,22.2-31.2,33.3-46.7c2.7-3.8,5.5-7.5,8.1-11.4c3.2-4.8,2.5-9.9-1.5-12.8c-4-2.9-9.3-1.9-12.7,2.5
		c-0.8,1.1-1.5,2.2-2.3,3.3C366.5,348.8,355.4,364.4,343.7,380.7z"/>
	<path class="st0" d="M360,246.3c-4,12.1-11.4,20.8-23.5,24.8c-17.6,5.8-36.4-3.2-43.2-20.7c-1.2-3.1-2.6-4.3-6-4.2
		c-21.5,0.2-43,0.1-64.4,0.1c-2.6,0-4,0.5-5.1,3.3c-5.7,14.6-18.3,23.4-32.8,23.3c-14.9,0-27.4-9-33.1-23.7
		c-0.4-0.9-0.8-1.8-1.3-2.9c-4.4,0-8.7,0-13,0c-13.2-0.2-22.7-9.2-23.1-22.5c-0.3-11.3-0.3-22.6,0-34c0.3-13.6,9.8-23.7,23.3-22.5
		c12.4,1.1,19.8-3.3,26-13.6c7.3-12.1,16.3-23.1,24.4-34.7c6.5-9.3,15.2-13.9,26.7-13.8c27.1,0.1,54.3,0.1,81.4,0
		c11.2-0.1,19.9,4.4,26.3,13.5c10.6,14.9,21.3,29.8,31.8,44.8c1.8,2.6,3.6,3.9,6.9,3.7c4-0.3,8-0.1,12-0.1
		c13.1,0.2,22.6,8.8,23.1,21.8c0.5,11.8,0.5,23.6,0,35.5c-0.5,13-10.1,21.8-23.1,21.9C368.8,246.3,364.4,246.3,360,246.3z
		 M255.3,184.5C255.3,184.5,255.3,184.5,255.3,184.5c-38.1,0-76.2,0-114.3,0c-8.1,0-9,0.9-9,9.3c0,6.8,0,13.6,0,20.5
		c-0.1,15-1.2,14.5,14.8,14.6c3,0,4.3-1.1,5.3-3.8c5.3-13.8,18.5-22.8,32.8-22.8c14.4,0,27.5,8.9,32.8,22.7c1.2,3.1,2.8,3.9,5.8,3.8
		c21.1-0.1,42.3-0.1,63.4,0c3.5,0,5.1-1,6.5-4.4c5.5-13.3,15.9-21,30.1-22c14.5-1,26.6,5.1,32.9,18.2c3.6,7.4,7.7,9.2,14.7,8.1
		c0.3,0,0.7,0,1,0c5.3-0.2,6.7-1.6,6.7-7c0.1-9.2,0-18.3,0-27.5c0-9-0.8-9.7-9.6-9.7C331.2,184.5,293.2,184.5,255.3,184.5z
		 M246.3,122.9c-10.7,0-21.2,0.1-31.6-0.1c-5.3-0.1-9.2,1.9-12.2,6.2c-8,11.5-16.2,22.8-24.3,34.2c-0.7,1-1.2,2.2-1.9,3.4
		c23.6,0,46.8,0,70.1,0C246.3,152,246.3,137.8,246.3,122.9z M335,166.8c-9.9-13.9-19.2-27.1-28.8-40c-1.3-1.8-4.1-3.4-6.3-3.5
		c-11.8-0.3-23.5-0.2-35.6-0.2c0,14.7,0,29.1,0,43.7C287.8,166.8,310.8,166.8,335,166.8z M325.7,255.2c9.7,0.1,17.9-8.1,17.8-17.8
		c-0.1-9.6-7.9-17.3-17.6-17.4c-9.9-0.1-17.9,7.9-17.8,17.7C308.2,247.3,316.1,255.1,325.7,255.2z M184.8,255.2
		c9.8,0,17.8-8.2,17.6-17.9c-0.2-9.7-7.9-17.3-17.6-17.3c-9.7,0-17.5,7.7-17.7,17.3C166.9,247,175,255.2,184.8,255.2z"/>
	<path class="st0" d="M189.4,405.1c21.5,0,42.9,0,64.4,0c6.6,0,10.5,3.8,10.2,9.5c-0.3,5.2-4.1,8.2-10.6,8.2c-26.3,0-52.6,0-78.9,0
		c-16.3,0-32.6,0.1-48.9-0.1c-2.9,0-6.8-0.9-8.5-2.9c-1.8-2.1-2.5-6.1-1.9-9c0.8-4.2,4.6-5.8,8.8-5.8c16.8,0,33.6,0,50.4,0
		C179.4,405.1,184.4,405.1,189.4,405.1z"/>
	<path class="st0" d="M189.5,361.1c21.5,0,42.9,0,64.4,0c6.3,0,10,3.2,10,8.6c0,4.6-2.2,7.6-6.7,8.6c-1.8,0.4-3.6,0.4-5.4,0.4
		c-41.9,0-83.9,0-125.8,0c-1.2,0-2.3,0-3.5-0.1c-4.9-0.7-8.4-4.5-8.2-9.1c0.2-4.7,3.8-8.3,8.8-8.4c8.7-0.1,17.3,0,26,0
		C162.5,361.1,176,361.1,189.5,361.1z"/>
	<path class="st0" d="M188.8,317c21.6,0,43.3,0.1,64.9,0c4.4,0,7.9,1.2,9.7,5.5c2.4,5.9-1.7,11.8-8.5,12c-9.6,0.2-19.3,0.1-29,0.1
		c-32.8,0-65.6,0-98.3,0c-1.7,0-3.3,0.1-5-0.1c-5-0.5-8.5-4.2-8.4-8.9c0.1-4.7,3.7-8.4,8.7-8.5c8.8-0.2,17.6-0.1,26.5-0.1
		C162.6,317,175.7,317,188.8,317z"/>
	<path class="st0" d="M343.7,380.7c11.7-16.4,22.8-31.9,33.9-47.5c0.8-1.1,1.5-2.2,2.3-3.3c3.4-4.4,8.7-5.4,12.7-2.5
		c4.1,3,4.7,8.1,1.5,12.8c-2.6,3.9-5.4,7.6-8.1,11.4c-11.1,15.6-22.2,31.2-33.3,46.7c-6.5,9.1-12.4,9-18.5-0.1
		c-5-7.5-10-14.9-14.9-22.4c-3.5-5.4-2.7-10.6,1.8-13.5c4.4-2.8,9.2-1.4,12.8,3.7C337,370.8,340.1,375.4,343.7,380.7z"/>
	<path d="M255.3,184.5c37.9,0,75.9,0,113.8,0c8.8,0,9.6,0.8,9.6,9.7c0,9.2,0,18.3,0,27.5c0,5.4-1.5,6.8-6.7,7c-0.3,0-0.7,0-1,0
		c-7,1.1-11.1-0.7-14.7-8.1c-6.3-13.1-18.3-19.2-32.9-18.2c-14.2,1-24.6,8.7-30.1,22c-1.4,3.4-3,4.4-6.5,4.4
		c-21.1-0.1-42.3-0.1-63.4,0c-3,0-4.6-0.7-5.8-3.8c-5.2-13.8-18.4-22.7-32.8-22.7c-14.3,0-27.4,9-32.8,22.8
		c-1.1,2.7-2.3,3.8-5.3,3.8c-16,0-14.9,0.5-14.8-14.6c0-6.8,0-13.6,0-20.5c0-8.3,0.9-9.3,9-9.3C179,184.5,217.1,184.5,255.3,184.5
		C255.3,184.5,255.3,184.5,255.3,184.5z"/>
	<path d="M246.3,122.9c0,14.8,0,29.1,0,43.7c-23.3,0-46.4,0-70.1,0c0.7-1.2,1.2-2.4,1.9-3.4c8.1-11.4,16.3-22.7,24.3-34.2
		c3-4.4,6.9-6.3,12.2-6.2C225.1,123,235.5,122.9,246.3,122.9z"/>
	<path d="M335,166.8c-24.2,0-47.2,0-70.7,0c0-14.6,0-29,0-43.7c12,0,23.8-0.2,35.6,0.2c2.2,0.1,5,1.7,6.3,3.5
		C315.8,139.8,325.1,152.9,335,166.8z"/>
	<path d="M325.7,255.2c-9.6-0.1-17.4-7.9-17.5-17.5c-0.1-9.8,7.9-17.7,17.8-17.7c9.6,0.1,17.5,7.8,17.6,17.4
		C343.5,247.1,335.4,255.2,325.7,255.2z"/>
	<path d="M184.8,255.2c-9.7,0-17.8-8.2-17.7-17.9c0.2-9.6,8-17.3,17.7-17.3c9.7,0,17.5,7.6,17.6,17.3
		C202.6,247,194.5,255.2,184.8,255.2z"/>
</g>
</svg>
