<?xml version="1.0" encoding="utf-8"?>
<!-- Generator: Adobe Illustrator 19.0.0, SVG Export Plug-In . SVG Version: 6.00 Build 0)  -->
<svg version="1.1" id="Layer_1" xmlns="http://www.w3.org/2000/svg" xmlns:xlink="http://www.w3.org/1999/xlink" x="0px" y="0px"
	 viewBox="0 0 511.6 511.6" style="enable-background:new 0 0 511.6 511.6;" xml:space="preserve">
<g>
	<path d="M39.7,490.1c0-156.5,0-313.1,0-469.6C43.2,10,50.2,3,60.7-0.5c40,0,79.9,0,119.9,0c0,11.6,0,23.2,0,35.2
		c-2.5,0-4.5,0-6.5,0c-26.3,0-52.6,0-78.9,0c-13.3,0-20.3,7.1-20.3,20.4c0,133.5,0,267.1,0,400.6c0,13,7.1,20.1,20.1,20.2
		c110.2,0,220.5,0,330.7,0c12.2,0,19.5-7.4,19.5-19.6c0-133.7,0-267.4,0-401.1c0-13.4-7-20.4-20.3-20.4c-26.6,0-53.3,0-79.9,0
		c-1.8,0-3.5-0.1-5.5-0.2c0-12,0-23.5,0-35c40,0,79.9,0,119.9,0c16.1,5.5,21.2,17.1,21.2,33.5c-0.3,149.4-0.2,298.7-0.2,448.1
		c0,19.4-10.5,29.9-29.9,29.9c-106.1,0-212.2,0-318.2,0c-21.8,0-43.6,0-65.4,0c-9.3,0-16.9-3.7-22.2-11.3
		C42.5,496.8,41.3,493.3,39.7,490.1z"/>
	<path d="M321.4-0.5c0,17.4,0,34.9,0,52.6c-40.9,0-81.6,0-122.9,0c0-17.5,0-35.1,0-52.6C239.5-0.5,280.5-0.5,321.4-0.5z"/>
	<path d="M92.8,457.8c0-135.1,0-269.9,0-405.1c29.3,0,58.3,0,87.4,0c3.9,13.9,8.6,17.4,23.1,17.4c37.8,0,75.6,0,113.4,0
		c14.5,0,19.4-3.6,23.2-17.5c28.9,0,57.8,0,87.2,0c0,135,0,269.9,0,405.2C315.8,457.8,204.5,457.8,92.8,457.8z M364.7,246.4
		c4.4,0,8.8,0,13.1,0c13-0.1,22.6-8.9,23.1-21.9c0.5-11.8,0.5-23.7,0-35.5c-0.5-13.1-10-21.7-23.1-21.8c-4-0.1-8-0.2-12,0.1
		c-3.3,0.2-5.1-1.1-6.9-3.7c-10.5-15-21.2-29.8-31.8-44.8c-6.5-9.1-15.1-13.6-26.3-13.5c-27.1,0.1-54.3,0.1-81.4,0
		c-11.4-0.1-20.1,4.5-26.7,13.8c-8.1,11.6-17.1,22.6-24.4,34.7c-6.2,10.4-13.6,14.8-26,13.6c-13.4-1.2-22.9,8.9-23.3,22.5
		c-0.3,11.3-0.3,22.6,0,34c0.4,13.3,9.9,22.3,23.1,22.5c4.3,0.1,8.6,0,13,0c0.5,1.1,0.9,2,1.3,2.9c5.8,14.7,18.2,23.6,33.1,23.7
		c14.5,0,27.2-8.8,32.8-23.3c1.1-2.8,2.5-3.3,5.1-3.3c21.5,0.1,43,0.1,64.4-0.1c3.4,0,4.8,1.1,6,4.2c6.9,17.5,25.6,26.5,43.2,20.7
		C353.3,267.2,360.7,258.5,364.7,246.4z M194.1,405.2c-5,0-10,0-15,0c-16.8,0-33.6,0-50.4,0c-4.2,0-8,1.6-8.8,5.8
		c-0.6,2.9,0.2,6.9,1.9,9c1.7,2,5.6,2.8,8.5,2.9c16.3,0.3,32.6,0.1,48.9,0.1c26.3,0,52.6,0,78.9,0c6.4,0,10.2-3,10.6-8.2
		c0.4-5.8-3.5-9.5-10.2-9.5C237,405.2,215.5,405.2,194.1,405.2z M194.2,361.2c-13.5,0-27,0-40.4,0c-8.7,0-17.3-0.1-26,0
		c-5,0.1-8.6,3.7-8.8,8.4c-0.2,4.6,3.2,8.4,8.2,9.1c1.1,0.2,2.3,0.1,3.5,0.1c41.9,0,83.9,0,125.8,0c1.8,0,3.7,0,5.4-0.4
		c4.5-1,6.7-4,6.7-8.6c0-5.3-3.8-8.6-10-8.6C237.1,361.2,215.7,361.2,194.2,361.2z M193.5,317.1c-13.1,0-26.3,0-39.4,0
		c-8.8,0-17.6-0.1-26.5,0.1c-5,0.1-8.6,3.8-8.7,8.5c-0.1,4.6,3.4,8.4,8.4,8.9c1.7,0.2,3.3,0.1,5,0.1c32.8,0,65.6,0,98.3,0
		c9.7,0,19.3,0.1,29-0.1c6.8-0.1,11-6.1,8.5-12c-1.8-4.2-5.3-5.5-9.7-5.5C236.8,317.2,215.2,317.1,193.5,317.1z M348.4,380.8
		c-3.5-5.3-6.6-10-9.8-14.6c-3.5-5.2-8.4-6.5-12.8-3.7c-4.6,2.9-5.3,8.1-1.8,13.5c4.9,7.5,9.9,15,14.9,22.4c6.1,9.1,12,9.2,18.5,0.1
		c11.1-15.6,22.2-31.2,33.3-46.7c2.7-3.8,5.5-7.5,8.1-11.4c3.2-4.8,2.5-9.9-1.5-12.8s-9.3-1.9-12.7,2.5c-0.8,1.1-1.5,2.2-2.3,3.3
		C371.2,348.9,360.1,364.5,348.4,380.8z"/>
	<path d="M260,184.6c37.9,0,75.9,0,113.8,0c8.8,0,9.6,0.8,9.6,9.7c0,9.2,0,18.3,0,27.5c0,5.4-1.5,6.8-6.7,7c-0.3,0-0.7,0-1,0
		c-7,1.1-11.1-0.7-14.7-8.1c-6.3-13.1-18.3-19.2-32.9-18.2c-14.2,1-24.6,8.7-30.1,22c-1.4,3.4-3,4.4-6.5,4.4
		c-21.1-0.1-42.3-0.1-63.4,0c-3,0-4.6-0.7-5.8-3.8c-5.2-13.8-18.4-22.7-32.8-22.7c-14.3,0-27.4,9-32.8,22.8
		c-1.1,2.7-2.3,3.8-5.3,3.8c-16,0-14.9,0.5-14.8-14.6c0-6.8,0-13.6,0-20.5c0-8.3,0.9-9.3,9-9.3C183.7,184.6,221.8,184.6,260,184.6
		L260,184.6z"/>
	<path d="M251,123c0,14.8,0,29.1,0,43.7c-23.3,0-46.4,0-70.1,0c0.7-1.2,1.2-2.4,1.9-3.4c8.1-11.4,16.3-22.7,24.3-34.2
		c3-4.4,6.9-6.3,12.2-6.2C229.8,123.1,240.2,123,251,123z"/>
	<path d="M339.7,166.9c-24.2,0-47.2,0-70.7,0c0-14.6,0-29,0-43.7c12,0,23.8-0.2,35.6,0.2c2.2,0.1,5,1.7,6.3,3.5
		C320.5,139.9,329.8,153,339.7,166.9z"/>
	<path d="M330.4,255.3c-9.6-0.1-17.4-7.9-17.5-17.5c-0.1-9.8,7.9-17.7,17.8-17.7c9.6,0.1,17.5,7.8,17.6,17.4
		C348.2,247.2,340.1,255.3,330.4,255.3z"/>
	<path d="M189.5,255.3c-9.7,0-17.8-8.2-17.7-17.9c0.2-9.6,8-17.3,17.7-17.3s17.5,7.6,17.6,17.3C207.3,247.1,199.2,255.3,189.5,255.3
		z"/>
</g>
</svg>
