<?xml version="1.0" encoding="utf-8"?>
<!-- Generator: Adobe Illustrator 19.0.0, SVG Export Plug-In . SVG Version: 6.00 Build 0)  -->
<svg version="1.1" id="Layer_1" xmlns="http://www.w3.org/2000/svg" xmlns:xlink="http://www.w3.org/1999/xlink" x="0px" y="0px"
	 viewBox="0 0 511.6 511.6" style="enable-background:new 0 0 511.6 511.6;" xml:space="preserve">
<g>
	<path d="M103.2,209.2c-16,0.9-23.8-6.1-24.3-21.1c0-0.3,0-0.7,0-1c-0.7-34-0.7-36.6,32.7-42.9c33.5-6.4,59.1-21.1,75.5-51.3
		c10.4-19.2,26.4-25.5,48.1-24.4c32.5,1.6,65.2,0.6,97.8,0.3c14-0.1,24.4,5.1,31.1,17.5c1.6,2.9,3.8,5.5,5.3,8.5
		c11.8,24.6,28.7,43.2,56,51c9.4,2.7,13.2,10.5,13.3,20.2c0,6.3,0,12.6,0,19c0,19.4-8.4,26.6-28.3,24.2c-9-26.8-23.7-39.5-45.1-38.8
		c-21.1,0.7-36.1,14.4-42.4,39c-44,0-88.1,0-132.2,0c-8.3-26.5-23.6-39.7-45.1-39C124.5,171,109.7,184.4,103.2,209.2z"/>
	<path d="M357.4,323.5c-27.4,4.8-53.9,9.5-80.4,14.1c-2.9,0.5-6.4,0.3-8.7,1.9c-2.6,1.7-4.2,5-6.2,7.6c3,1.9,6.4,5.8,9,5.4
		c31.9-5.1,63.6-10.9,95.4-16.5c6.4-1.1,8.7-5.6,6.4-11c-3.1-7.2,0.1-10.7,5.5-14.6c17.5-12.7,34.7-25.8,52.1-38.7
		c9.8-7.3,19.9-8.2,32-1.3c-3.1,3.2-5.6,6-8.3,8.6c-35,34.2-70,68.3-104.8,102.7c-19.3,19-42.6,26.7-69,25.2
		c-30.6-1.7-61.1-4-91.6-7c-19-1.8-35.7,1.9-50.9,18.2c-1.8-10.3-3.2-18.2-4.6-26.1c-3.2-18.3-6.8-36.6-9.4-55.1
		c-0.5-3.7,1.5-9.2,4.3-11.6c23.8-20.4,51.6-28.2,81.8-20.1c22,5.9,43.1,6,65,1.3c14-3,28.1-5.4,42.3-7.2
		C335.9,297.1,349.9,305.6,357.4,323.5z"/>
	<path d="M52.6,316.4c17.6-3.1,33.8-6,51.4-9.1c7.6,43.2,15.1,85.8,22.7,129.4c-17.6,3.1-34.1,6-51.4,9.1
		C67.7,402.5,60.2,360.1,52.6,316.4z"/>
	<path d="M337.3,213.3c0.4-16.3,13.8-28.9,29.9-28.4c16.2,0.5,28.9,13.9,28.4,30c-0.4,16-14.1,28.9-30.1,28.5
		C349.6,243,336.8,229.5,337.3,213.3z"/>
	<path d="M146.4,243.4c-16.1-0.2-28.8-13.3-28.8-29.5c0-16.5,13.6-29.6,30-29.1c16.1,0.5,28.6,13.7,28.3,29.9
		C175.7,230.8,162.3,243.7,146.4,243.4z"/>
</g>
</svg>
