<?xml version="1.0" encoding="utf-8"?>
<!-- Generator: Adobe Illustrator 19.0.0, SVG Export Plug-In . SVG Version: 6.00 Build 0)  -->
<svg version="1.1" xmlns="http://www.w3.org/2000/svg" xmlns:xlink="http://www.w3.org/1999/xlink" x="0px" y="0px"
	 viewBox="-49 141 512 512" style="enable-background:new -49 141 512 512;" xml:space="preserve">
<style type="text/css">
	.st0{fill:#FFFFFF;}
</style>
<g id="Layer_1">
	<path class="st0" d="M369,141.5c-3.1,1.1-6.4,1.8-9.2,3.4c-15.5,8.6-18.1,28.7-5.5,41.6c11.3,11.5,22.7,22.8,34.1,34.2
		c0.7,0.7,1.5,1.2,2.4,2c-0.9,1-1.5,1.6-2.1,2.3c-8.6,8.9-17.2,17.7-25.6,26.8c-10.5,11.4-7.1,30.2,6.8,36.7
		c3.1,1.5,6.8,2.1,10.3,2.2c8.5,0.3,17.1,0,25.6,0c1.4,0,2.8,0,4.5,0c0,1.2,0,2.1,0,3c0,78.5,0,157.1,0,235.6
		c0,9.4-5.3,15.9-14,17.3c-8.4,1.3-17-5.3-17.8-13.8c-0.2-1.6-0.1-3.1-0.1-4.7c0-48.4,0.2-96.8-0.1-145.2
		c-0.1-28.5-13-49.8-38.2-63.3c-10.2-5.5-21.2-7.6-32.7-7.4c-4.7,0.1-9.4,0-14.4,0c0-1.4,0-2.5,0-3.6c0-41.2,0-82.4,0-123.6
		c0-19.8-11.8-36.1-30.2-41.7c-2.5-0.8-5-1.3-7.5-1.9C293,141.5,331,141.5,369,141.5z"/>
	<path class="st0" d="M301.6,653.5c3.5-1.4,7.3-2.3,10.5-4.1c10.2-6,14.9-18.2,11.8-29.6c-3.1-11.3-13.2-19.3-24.9-19.6
		c-1.9,0-3.8,0-5.9,0c0-78.2,0-156.2,0-234.2c6.5,0,13.1-0.6,19.4,0.2c6.8,0.9,11.4,6.7,12.2,13.5c0.2,1.5,0.2,3,0.2,4.4
		c0,48.5,0,97,0,145.5c0,20.5,7,38.2,22.1,51.9c20.2,18.3,43.9,23.6,69.6,14.8c25.5-8.7,40.7-27.3,45.8-53.8c0.8-4.2,1-8.5,1-12.7
		c0.1-95,0-190,0.1-284.9c0-15.5-5.4-28.7-16.4-39.6c-18.5-18.3-37-36.7-55.4-55.1c-4.5-4.5-9.9-7.2-16.1-8.6c29.4,0,58.9,0,88.3,0
		c0,170.7,0,341.3,0,512C409.9,653.5,355.7,653.5,301.6,653.5z"/>
	<path class="st0" d="M21.5,141.5c-4.4,1.3-9,2-13.1,4c-15.9,7.6-24,20.5-24.9,38c-0.1,1.3,0,2.6,0,3.9c0,136.2,0,272.5,0,408.7
		c0,1.2,0,2.4,0,4c-1.9,0-3.7,0-5.5,0c-13,0.3-23.4,9-25.9,21.8c-0.1,0.4-0.3,0.8-0.5,1.2c0-160.6,0-321.1,0-481.7
		C-25.1,141.5-1.8,141.5,21.5,141.5z"/>
	<path class="st0" d="M-48.5,630.5c0.4,1.4,0.7,2.8,1.2,4.2c3.5,10,10.4,16.2,20.9,18.3c0.5,0.1,1,0.3,1.4,0.5c-7.8,0-15.7,0-23.5,0
		C-48.5,645.9-48.5,638.2-48.5,630.5z"/>
	<path class="st0" d="M138.2,354.8c-25.5,0-51,0-76.5,0c-11.6,0-20.4-6-23.6-16.2c-0.8-2.7-1.2-5.6-1.2-8.5
		c-0.1-36.9-0.1-73.8,0-110.7c0-14.7,10-24.6,24.6-24.6c51.1,0,102.2,0,153.3,0c14.7,0,24.6,9.8,24.7,24.5c0,37,0,74,0,111
		c0,14.6-9.8,24.4-24.5,24.4C189.4,354.9,163.8,354.8,138.2,354.8z"/>
</g>
<g id="Layer_2">
	<path d="M-49,630.5c0-2.4,0-4.9,0-7.3c0.2-0.4,0.4-0.8,0.5-1.2c2.5-12.8,12.9-21.6,25.9-21.8c1.8,0,3.6,0,5.5,0c0-1.6,0-2.8,0-4
		c0-136.2,0-272.5,0-408.7c0-1.3,0-2.6,0-3.9c0.9-17.5,9.1-30.4,24.9-38c4.1-2,8.7-2.7,13.1-4c77.8,0,155.7,0,233.5,0
		c2.5,0.6,5.1,1.1,7.5,1.9c18.4,5.6,30.2,21.9,30.2,41.7c0,41.2,0,82.4,0,123.6c0,1.1,0,2.2,0,3.6c5,0,9.7,0.1,14.4,0
		c11.5-0.2,22.6,1.9,32.7,7.4c25.2,13.5,38.1,34.8,38.2,63.3c0.2,48.4,0.1,96.8,0.1,145.2c0,1.6,0,3.1,0.1,4.7
		c0.8,8.5,9.4,15.1,17.8,13.8c8.7-1.3,14-7.9,14-17.3c0-78.5,0-157.1,0-235.6c0-0.9,0-1.9,0-3c-1.7,0-3.1,0-4.5,0
		c-8.5,0-17.1,0.3-25.6,0c-3.5-0.1-7.2-0.8-10.3-2.2c-13.9-6.5-17.4-25.3-6.8-36.7c8.4-9.1,17.1-17.9,25.6-26.8
		c0.6-0.7,1.3-1.4,2.1-2.3c-1-0.8-1.7-1.3-2.4-2c-11.4-11.4-22.8-22.7-34.1-34.2c-12.6-12.8-9.9-33,5.5-41.6
		c2.8-1.6,6.1-2.3,9.2-3.4c2.3,0,4.5,0,6.8,0c6.2,1.3,11.5,4,16.1,8.6c18.4,18.4,36.9,36.7,55.4,55.1c11,10.9,16.4,24.1,16.4,39.6
		c0,95,0,190-0.1,284.9c0,4.2-0.2,8.6-1,12.7c-5.1,26.6-20.3,45.1-45.8,53.8c-25.7,8.8-49.4,3.5-69.6-14.8
		c-15.2-13.8-22.1-31.4-22.1-51.9c0.1-48.5,0-97,0-145.5c0-1.5,0-3-0.2-4.4c-0.8-6.8-5.4-12.6-12.2-13.5c-6.4-0.8-12.9-0.2-19.4-0.2
		c0,78,0,156,0,234.2c2.1,0,4,0,5.9,0c11.7,0.3,21.8,8.3,24.9,19.6c3.1,11.4-1.6,23.6-11.8,29.6c-3.2,1.9-7,2.8-10.5,4.1
		c-108.8,0-217.7,0-326.5,0c-0.5-0.2-0.9-0.4-1.4-0.5c-10.5-2.1-17.3-8.3-20.9-18.3C-48.3,633.4-48.6,631.9-49,630.5z M137.7,354.8
		c25.6,0,51.2,0.1,76.8,0c14.7,0,24.4-9.8,24.5-24.4c0-37,0-74,0-111c0-14.7-10-24.5-24.7-24.5c-51.1,0-102.2,0-153.3,0
		c-14.6,0-24.6,9.9-24.6,24.6c0,36.9,0,73.8,0,110.7c0,2.8,0.4,5.8,1.2,8.5c3.2,10.2,12,16.1,23.6,16.2
		C86.7,354.8,112.2,354.8,137.7,354.8z"/>
</g>
</svg>
