<?xml version="1.0" encoding="utf-8"?>
<!-- Generator: Adobe Illustrator 19.0.0, SVG Export Plug-In . SVG Version: 6.00 Build 0)  -->
<svg version="1.1" xmlns="http://www.w3.org/2000/svg" xmlns:xlink="http://www.w3.org/1999/xlink" x="0px" y="0px"
	 viewBox="-49 141 512 512" style="enable-background:new -49 141 512 512;" xml:space="preserve">
<g id="Layer_2">
	<path d="M-49,630.5c0-2.4,0-4.9,0-7.3c0.2-0.4,0.4-0.8,0.5-1.2c2.5-12.8,12.9-21.6,25.9-21.8c1.8,0,3.6,0,5.5,0c0-1.6,0-2.8,0-4
		c0-136.2,0-272.5,0-408.7c0-1.3,0-2.6,0-3.9c0.9-17.5,9.1-30.4,24.9-38c4.1-2,8.7-2.7,13.1-4c77.8,0,155.7,0,233.5,0
		c2.5,0.6,5.1,1.1,7.5,1.9c18.4,5.6,30.2,21.9,30.2,41.7c0,41.2,0,82.4,0,123.6c0,1.1,0,2.2,0,3.6c5,0,9.7,0.1,14.4,0
		c11.5-0.2,22.6,1.9,32.7,7.4c25.2,13.5,38.1,34.8,38.2,63.3c0.2,48.4,0.1,96.8,0.1,145.2c0,1.6,0,3.1,0.1,4.7
		c0.8,8.5,9.4,15.1,17.8,13.8c8.7-1.3,14-7.9,14-17.3c0-78.5,0-157.1,0-235.6c0-0.9,0-1.9,0-3c-1.7,0-3.1,0-4.5,0
		c-8.5,0-17.1,0.3-25.6,0c-3.5-0.1-7.2-0.8-10.3-2.2c-13.9-6.5-17.4-25.3-6.8-36.7c8.4-9.1,17.1-17.9,25.6-26.8
		c0.6-0.7,1.3-1.4,2.1-2.3c-1-0.8-1.7-1.3-2.4-2c-11.4-11.4-22.8-22.7-34.1-34.2c-12.6-12.8-9.9-33,5.5-41.6
		c2.8-1.6,6.1-2.3,9.2-3.4c2.3,0,4.5,0,6.8,0c6.2,1.3,11.5,4,16.1,8.6c18.4,18.4,36.9,36.7,55.4,55.1c11,10.9,16.4,24.1,16.4,39.6
		c0,95,0,190-0.1,284.9c0,4.2-0.2,8.6-1,12.7c-5.1,26.6-20.3,45.1-45.8,53.8c-25.7,8.8-49.4,3.5-69.6-14.8
		c-15.2-13.8-22.1-31.4-22.1-51.9c0.1-48.5,0-97,0-145.5c0-1.5,0-3-0.2-4.4c-0.8-6.8-5.4-12.6-12.2-13.5c-6.4-0.8-12.9-0.2-19.4-0.2
		c0,78,0,156,0,234.2c2.1,0,4,0,5.9,0c11.7,0.3,21.8,8.3,24.9,19.6c3.1,11.4-1.6,23.6-11.8,29.6c-3.2,1.9-7,2.8-10.5,4.1
		c-108.8,0-217.7,0-326.5,0c-0.5-0.2-0.9-0.4-1.4-0.5c-10.5-2.1-17.3-8.3-20.9-18.3C-48.3,633.4-48.6,631.9-49,630.5z M137.7,354.8
		c25.6,0,51.2,0.1,76.8,0c14.7,0,24.4-9.8,24.5-24.4c0-37,0-74,0-111c0-14.7-10-24.5-24.7-24.5c-51.1,0-102.2,0-153.3,0
		c-14.6,0-24.6,9.9-24.6,24.6c0,36.9,0,73.8,0,110.7c0,2.8,0.4,5.8,1.2,8.5c3.2,10.2,12,16.1,23.6,16.2
		C86.7,354.8,112.2,354.8,137.7,354.8z"/>
</g>
</svg>
