<?xml version="1.0" encoding="utf-8"?>
<!-- Generator: Adobe Illustrator 19.0.0, SVG Export Plug-In . SVG Version: 6.00 Build 0)  -->
<svg version="1.1" id="Layer_1" xmlns="http://www.w3.org/2000/svg" xmlns:xlink="http://www.w3.org/1999/xlink" x="0px" y="0px"
	 viewBox="0 0 511.6 511.6" style="enable-background:new 0 0 511.6 511.6;" xml:space="preserve">
<style type="text/css">
	.st0{fill:#FFFFFF;}
</style>
<g>
	<path class="st0" d="M-80.3,484.9c0-156.4,0-312.9,0-469.3c224,0,448.1,0,672.1,0c0,156.4,0,312.9,0,469.3
		C367.8,484.9,143.8,484.9-80.3,484.9z M255.5,357c0,0,0-0.1,0-0.1c27.7,0,55.3,0,83,0c31.8,0,63.6-0.3,95.4,0.3
		c15.5,0.3,24.1-10.7,23.8-22.1c-0.3-10.6-0.1-21.2-0.1-31.8c0-23,0.1-46.1,0.1-69.1c0-24,0-47.9-0.3-71.9
		c-0.2-11.4-8.5-19.3-19.8-19.4c-20-0.2-39.9-0.1-59.9-0.1c-32.1,0-64.2-0.1-96.3-0.1c-32.4,0-64.8,0.1-97.2,0.1
		c-36.6,0-73.1,0.3-109.7-0.1c-10.4-0.1-21.3,8.4-21.2,21.2c0.1,27.8,0,55.6,0,83.4c0,24.1,0,48.2,0,72.4c0,4.9,0.3,9.8,0.1,14.7
		c-0.7,14.2,9.8,22.8,23.5,22.8C136.3,356.8,195.9,357,255.5,357z M217.6,390.9C217.6,390.9,217.6,390.9,217.6,390.9
		c48.6,0,97.1,0,145.7,0c1.5,0,3.1,0.1,4.6-0.2c3.4-0.7,5.4-2.7,5.7-6.3c0.3-3.7-1-6.4-4.7-7.4c-1.9-0.5-3.9-0.8-5.9-0.8
		c-95.9,0-191.8,0-287.6-0.1c-24.3,0-41.2-16.6-41.2-41C33.9,278,33.9,220.9,34,163.7c0-22.8,17.4-40.1,40.3-40.2
		c14-0.1,28,0,41.9,0c6,0,9.2-2.5,9.3-7.2c0.1-4.7-3.1-7.4-9-7.5c-14.3-0.1-28.6-0.2-42.9,0c-27.3,0.3-49.8,19.4-53.4,46.5
		c-1.6,11.9-0.9,24.2-1,36.3c-0.1,42.7-0.1,85.4,0,128.1c0,9.6-0.4,19.5,1.6,28.9c5.3,25.1,27.6,42.2,53.3,42.3
		C122,390.9,169.8,390.9,217.6,390.9z M294.4,123.5C294.4,123.5,294.4,123.5,294.4,123.5c47.3,0,94.6-0.1,141.9,0
		c23.1,0.1,40.3,17,40.3,40c0.1,57.6,0.1,115.2-0.1,172.8c-0.1,22.7-17.5,39.7-40.1,39.8c-13.1,0.1-26.1,0-39.2,0.1
		c-5.6,0-9.3,3.3-9.1,7.6c0.2,4.3,3.7,7,9.1,7.1c13.4,0,26.7,0.1,40.1-0.1c3.8,0,7.7-0.4,11.4-1.3c25.3-6,42-26.8,42.5-52.7
		c0.3-15,0.1-30.1,0.1-45.2c0-42.2,0-84.5,0-126.7c0-11.2-2.6-21.6-8.8-30.9c-11.1-16.7-26.9-25.2-46.9-25.2
		c-72.2-0.1-144.4,0-216.6,0c-23,0-46.1-0.1-69.1,0.2c-3,0-7,1.5-8.6,3.7c-4,5.2,0.8,10.9,8.8,10.9
		C198.3,123.5,246.3,123.5,294.4,123.5z"/>
	<path d="M255.5,357c-59.6,0-119.2-0.2-178.8,0.1c-13.7,0.1-24.2-8.5-23.5-22.8c0.2-4.9-0.1-9.8-0.1-14.7c0-24.1,0-48.2,0-72.4
		c0-27.8,0.1-55.6,0-83.4c0-12.8,10.9-21.3,21.2-21.2c36.6,0.4,73.1,0.1,109.7,0.1c32.4,0,64.8-0.1,97.2-0.1
		c32.1,0,64.2,0.1,96.3,0.1c20,0,39.9,0,59.9,0.1c11.3,0.1,19.6,8,19.8,19.4c0.4,24,0.3,47.9,0.3,71.9c0,23-0.1,46.1-0.1,69.1
		c0,10.6-0.1,21.2,0.1,31.8c0.3,11.5-8.3,22.4-23.8,22.1c-31.8-0.5-63.6-0.3-95.4-0.3c-27.7,0-55.3,0-83,0
		C255.5,356.9,255.5,357,255.5,357z M67.7,293.9c125.2,0,250.2,0,375.4,0c0-29.5,0-58.8,0-88.1c-125.2,0-250.2,0-375.4,0
		C67.7,235.2,67.7,264.3,67.7,293.9z M67.5,309c0,8-0.1,15.5,0,23c0.2,9.2,1.7,10.6,10.9,10.6c35.2,0,70.3,0,105.5,0
		c31.6,0,63.3,0,94.9,0c32.6,0,65.1,0,97.7,0c19.5,0,39,0.1,58.5,0c6.1,0,8.3-2.4,8.3-8.5c0-3.1-0.1-6.1-0.1-9.2
		c0-5.3,0-10.6,0-15.9C317.8,309,192.9,309,67.5,309z M443.3,190.6c0-8.3,0.1-16.1,0-23.9c-0.1-7.7-1.9-9.5-9.6-9.5
		c-21.2-0.1-42.4-0.2-63.6-0.2c-25.3,0-50.7,0.1-76,0.1c-32.7,0-65.4,0-98.1,0c-23.2,0-46.4-0.1-69.6-0.1c-16.9,0-33.8,0-50.7,0.2
		c-5.7,0-8,1.7-8.2,6.6c-0.3,8.9-0.1,17.7-0.1,26.8C192.8,190.6,317.7,190.6,443.3,190.6z"/>
	<path d="M217.6,390.9c-47.8,0-95.6,0-143.4,0c-25.7,0-48-17.2-53.3-42.3c-2-9.3-1.6-19.2-1.6-28.9c-0.1-42.7-0.1-85.4,0-128.1
		c0-12.1-0.6-24.4,1-36.3c3.6-27.1,26.2-46.2,53.4-46.5c14.3-0.2,28.6,0,42.9,0c5.9,0,9.1,2.7,9,7.5c-0.1,4.7-3.3,7.2-9.3,7.2
		c-14,0-28-0.1-41.9,0C51.4,123.6,34,140.9,34,163.7c-0.1,57.2-0.1,114.3,0.1,171.5c0.1,24.4,16.9,40.9,41.2,41
		c95.9,0,191.8,0,287.6,0.1c2,0,4,0.2,5.9,0.8c3.7,1,5,3.8,4.7,7.4c-0.3,3.6-2.3,5.6-5.7,6.3c-1.5,0.3-3.1,0.2-4.6,0.2
		C314.7,390.9,266.1,390.9,217.6,390.9C217.6,390.9,217.6,390.9,217.6,390.9z"/>
	<path d="M294.4,123.5c-48.1,0-96.2,0-144.2,0c-8,0-12.7-5.6-8.8-10.9c1.7-2.2,5.7-3.7,8.6-3.7c23-0.3,46.1-0.2,69.1-0.2
		c72.2,0,144.4,0,216.6,0c20.1,0,35.8,8.6,46.9,25.2c6.2,9.3,8.8,19.8,8.8,30.9c0,42.2,0,84.5,0,126.7c0,15.1,0.1,30.1-0.1,45.2
		c-0.5,25.9-17.3,46.7-42.5,52.7c-3.7,0.9-7.6,1.3-11.4,1.3c-13.4,0.2-26.7,0.1-40.1,0.1c-5.5,0-8.9-2.8-9.1-7.1
		c-0.2-4.3,3.5-7.6,9.1-7.6c13.1-0.1,26.1,0,39.2-0.1c22.6-0.1,40-17.1,40.1-39.8c0.2-57.6,0.2-115.2,0.1-172.8
		c-0.1-23-17.3-40-40.3-40C389,123.4,341.7,123.5,294.4,123.5C294.4,123.5,294.4,123.5,294.4,123.5z"/>
	<path class="st0" d="M67.7,293.9c0-29.6,0-58.7,0-88.1c125.2,0,250.2,0,375.4,0c0,29.3,0,58.6,0,88.1
		C317.8,293.9,192.9,293.9,67.7,293.9z M133.3,288.5c7.1,0,13.7,0.3,20.2-0.1c6.8-0.4,13-3.2,14.5-10.5c2.1-10.5,3.9-21.4-6.7-29.1
		c7.6-5,7.7-15.2,5.4-25.4c-1.1-4.9-4.7-7.9-9.4-8.4c-7.9-0.9-15.8-0.9-24.1-1.4C133.3,238.9,133.3,263.4,133.3,288.5z M123.4,288.3
		c0-1.2,0.1-2,0-2.8c-3.3-20.1-6.5-40.2-9.8-60.2c-0.6-3.7-0.3-9.1-2.6-10.7c-2.7-1.9-7.7-0.5-11.6-0.7c-3.6-0.3-5,0.9-5.5,4.7
		c-2.5,16.8-5.4,33.5-8,50.3c-1,6.4-1.9,12.8-2.9,19.4c3.9,0,7.2,0,10.6,0c0.7-4.6,1.4-8.9,2.1-13.4c2.6,0,4.9,0,7.2,0
		c6.7,0.1,6.7,0.1,7.8,6.6c0.4,2.2,0.8,4.4,1.2,6.8C115.8,288.3,119.4,288.3,123.4,288.3z M417.6,249.3c7.7-6.8,10.1-20.1,5.1-28.4
		c-4.2-7-13.5-9.7-22.4-6.3c-7.7,2.9-11.5,11.4-9.5,21.1c3.4,0,6.9,0,10.4,0c0.3-2.7,0.1-5.3,0.9-7.5c0.7-1.7,2.7-3.8,4.3-4
		c1.8-0.2,5.4,1.3,5.6,2.4c0.7,4.7,1.2,9.7,0.2,14.3c-0.9,4.3-5.7,3-9.1,3.4c-0.3,0-0.5,0.3-0.8,0.4c0,3.4,0,6.8,0,10.2
		c4.2,0.5,9.3-0.9,10.2,4.4c0.9,4.9,0.6,10.1,0.1,15.1c-0.2,2.9-2.8,4.8-5.7,3.8c-2-0.7-4.3-2.4-4.9-4.2c-1-2.8-0.7-6-1-9.2
		c-3.5,0-7,0-10.9,0c0.2,3.7,0.4,7,0.7,10.3c0.7,8.3,6.2,13.3,15.3,14.1c8.6,0.8,16.2-3.6,17.8-11.1c1-4.4,0.7-9.1,1-13.7
		C425.4,258.1,423.5,252.7,417.6,249.3z M213.9,239c0-3.3,0.1-6.3,0-9.2c-0.3-10.4-6.4-16.3-17.3-16.7c-9.6-0.3-16.6,5.7-16.9,15.5
		c-0.4,15-0.3,30,0.1,45.1c0.2,9.5,6.2,14.8,15.9,15.6c9.3,0.7,16.5-4.4,17.9-13.5c0.7-4.7,0.1-9.7,0.1-14.8c-3.6,0-7,0-10.9,0
		c0,4.1,0.1,7.9,0,11.7c-0.1,3.4-1.9,5.3-5.4,5.6c-3.6,0.3-5.5-1.5-6-4.9c-0.2-1.7-0.4-3.3-0.4-5c0-8.3,0-16.6,0-24.9
		c0-4.7-0.1-9.5,0.3-14.2c0.3-3.5,2.3-5.6,6.1-5.3c3.8,0.3,5.3,2.6,5.4,6.1c0.1,2.9,0,5.7,0,8.9C206.9,239,210.2,239,213.9,239z
		 M378.7,277.6c-7.5,0-14.6,0-22.8,0c1.2-3.1,1.7-5.8,3.1-7.8c2.9-4.1,6.3-7.9,9.5-11.8c6.9-8.2,12-17.1,11.3-28.3
		c-0.6-9.9-5.5-14.9-15.9-16.3c-8.2-1.1-15.6,2.9-17.7,10.5c-1.3,4.7-1.3,9.8-1.9,15.1c4.5,0,7.9,0,11.4,0c0.2-3.7,0.2-7.1,0.7-10.4
		c0.5-3.1,2.5-4.8,5.9-4.6c3.3,0.2,5.4,2.1,5.4,5.2c0,4.1,0.2,8.7-1.6,12.1c-3.4,6.3-7.7,12.1-12.4,17.5
		c-7.6,8.7-10.1,18.5-8.6,29.6c11.4,0,22.4,0,33.6,0C378.7,284.8,378.7,281.6,378.7,277.6z M315.1,288.2c4.1,0,7.7,0,11.6,0
		c0-24.8,0-49.3,0-74.9c-3,0.7-7.2,0.6-8,2.1c-2.6,5.4-6.6,7.8-12.4,7.8c0,2.9,0,5.5,0,8.2c3,0.2,5.8,0.4,8.8,0.6
		C315.1,251,315.1,269.4,315.1,288.2z M245.5,246.2c0,3.6,0,6.8,0,10c7.1,0,13.9,0,20.6,0c0-3.5,0-6.7,0-10
		C259.2,246.2,252.5,246.2,245.5,246.2z"/>
	<path class="st0" d="M67.5,309c125.5,0,250.3,0,375.7,0c0,5.3,0,10.6,0,15.9c0,3.1,0.2,6.1,0.1,9.2c0,6.1-2.3,8.5-8.3,8.5
		c-19.5,0.1-39,0-58.5,0c-32.6,0-65.1,0-97.7,0c-31.6,0-63.3,0-94.9,0c-35.2,0-70.3,0-105.5,0c-9.2,0-10.7-1.4-10.9-10.6
		C67.4,324.5,67.5,317,67.5,309z M380.5,325.8c0-4.4-3.3-7.7-7.8-7.9c-4.5-0.1-7.7,3.1-7.8,7.7c-0.1,4.4,3.4,8.1,7.6,8
		C376.7,333.7,380.4,330,380.5,325.8z M145.9,325.8c0-4.4-3-7.7-7.3-7.8c-4.8-0.1-8.4,3.3-8.3,7.8c0.1,4.2,3.9,7.8,8.1,7.8
		C142.6,333.5,145.8,330.1,145.9,325.8z"/>
	<path class="st0" d="M443.3,190.6c-125.6,0-250.5,0-375.8,0c0-9.1-0.2-18,0.1-26.8c0.2-4.9,2.4-6.5,8.2-6.6
		c16.9-0.1,33.8-0.2,50.7-0.2c23.2,0,46.4,0.1,69.6,0.1c32.7,0,65.4,0,98.1,0c25.3,0,50.7-0.1,76-0.1c21.2,0,42.4,0,63.6,0.2
		c7.7,0,9.5,1.8,9.6,9.5C443.4,174.4,443.3,182.3,443.3,190.6z M372.6,181.7c4.6,0,7.9-3.4,7.8-7.9c-0.1-4.2-4.1-7.9-8.2-7.7
		c-4.2,0.2-7.4,3.6-7.4,7.8C364.7,178.5,368,181.8,372.6,181.7z M146,174.2c0.1-4.4-3.3-8.1-7.6-8.1c-4.2-0.1-7.9,3.7-7.9,8
		c0,4.3,3.2,7.6,7.5,7.8C142.3,182,145.9,178.7,146,174.2z"/>
	<path d="M133.3,288.5c0-25.1,0-49.6,0-74.9c8.3,0.4,16.3,0.5,24.1,1.4c4.6,0.5,8.3,3.5,9.4,8.4c2.3,10.1,2.2,20.4-5.4,25.4
		c10.6,7.8,8.8,18.6,6.7,29.1c-1.5,7.4-7.6,10.1-14.5,10.5C147,288.8,140.3,288.5,133.3,288.5z M144.9,278.7
		c4.3-1.3,10.5-1.8,11-3.7c1.3-5.5,1.5-11.9-0.1-17.3c-1.3-4.2-6.8-2.3-10.8-2.3C144.9,262.9,144.9,269.9,144.9,278.7z M145,244.3
		c3.7-0.4,8.5,1.6,9.8-2.8c1.3-4.4,1.5-9.7,0.1-14.1c-1.3-4.1-6.2-2.3-10-2.4C145,231.6,145,237.7,145,244.3z"/>
	<path d="M123.4,288.3c-4,0-7.6,0-11.4,0c-0.4-2.4-0.9-4.6-1.2-6.8c-1.1-6.5-1.1-6.5-7.8-6.6c-2.3,0-4.6,0-7.2,0
		c-0.7,4.5-1.4,8.8-2.1,13.4c-3.5,0-6.8,0-10.6,0c1-6.5,1.8-13,2.9-19.4c2.7-16.8,5.6-33.5,8-50.3c0.6-3.8,1.9-5,5.5-4.7
		c4,0.3,9-1.2,11.6,0.7c2.3,1.6,1.9,7,2.6,10.7c3.3,20.1,6.6,40.2,9.8,60.2C123.6,286.3,123.4,287.1,123.4,288.3z M103,229.5
		c-0.2,0-0.4,0-0.5,0c-1.7,11.6-3.4,23.2-5.1,34.8c3.9,0,7.2,0,10.9,0C106.4,252.4,104.7,241,103,229.5z"/>
	<path d="M417.6,249.3c5.8,3.4,7.7,8.8,7.4,15.2c-0.2,4.6,0,9.3-1,13.7c-1.6,7.5-9.3,12-17.8,11.1c-9.2-0.9-14.6-5.8-15.3-14.1
		c-0.3-3.3-0.4-6.7-0.7-10.3c3.9,0,7.4,0,10.9,0c0.3,3.2,0,6.4,1,9.2c0.7,1.8,3,3.6,4.9,4.2c2.9,1,5.4-0.9,5.7-3.8
		c0.4-5,0.7-10.2-0.1-15.1c-0.9-5.3-6.1-4-10.2-4.4c0-3.4,0-6.8,0-10.2c0.3-0.2,0.5-0.4,0.8-0.4c3.4-0.4,8.1,0.9,9.1-3.4
		c1-4.6,0.5-9.6-0.2-14.3c-0.2-1.1-3.7-2.6-5.6-2.4c-1.6,0.2-3.6,2.3-4.3,4c-0.9,2.2-0.7,4.8-0.9,7.5c-3.5,0-7,0-10.4,0
		c-2-9.7,1.9-18.2,9.5-21.1c8.9-3.4,18.2-0.8,22.4,6.3C427.7,229.2,425.3,242.5,417.6,249.3z"/>
	<path d="M213.9,239c-3.6,0-6.9,0-11.1,0c0-3.1,0.1-6,0-8.9c-0.1-3.5-1.6-5.9-5.4-6.1c-3.8-0.3-5.9,1.9-6.1,5.3
		c-0.4,4.7-0.2,9.5-0.3,14.2c0,8.3,0,16.6,0,24.9c0,1.7,0.2,3.4,0.4,5c0.5,3.4,2.4,5.2,6,4.9c3.5-0.3,5.3-2.2,5.4-5.6
		c0.1-3.8,0-7.6,0-11.7c3.9,0,7.3,0,10.9,0c0,5.1,0.6,10.1-0.1,14.8c-1.4,9.1-8.6,14.1-17.9,13.5c-9.7-0.7-15.7-6.1-15.9-15.6
		c-0.4-15-0.5-30.1-0.1-45.1c0.3-9.9,7.3-15.8,16.9-15.5c10.9,0.3,17,6.2,17.3,16.7C213.9,232.7,213.9,235.7,213.9,239z"/>
	<path d="M378.7,277.6c0,4,0,7.2,0,10.7c-11.2,0-22.2,0-33.6,0c-1.5-11.1,1-20.8,8.6-29.6c4.7-5.4,9-11.2,12.4-17.5
		c1.8-3.4,1.6-8,1.6-12.1c0-3-2.1-5-5.4-5.2c-3.3-0.2-5.4,1.6-5.9,4.6c-0.5,3.3-0.5,6.7-0.7,10.4c-3.4,0-6.9,0-11.4,0
		c0.6-5.3,0.6-10.4,1.9-15.1c2.1-7.6,9.5-11.6,17.7-10.5c10.4,1.4,15.2,6.4,15.9,16.3c0.7,11.2-4.4,20.1-11.3,28.3
		c-3.3,3.9-6.6,7.7-9.5,11.8c-1.4,2-1.9,4.6-3.1,7.8C364.1,277.6,371.2,277.6,378.7,277.6z"/>
	<path d="M315.1,288.2c0-18.9,0-37.3,0-56.1c-3-0.2-5.8-0.4-8.8-0.6c0-2.8,0-5.3,0-8.2c5.9,0,9.8-2.4,12.4-7.8
		c0.8-1.5,4.9-1.4,8-2.1c0,25.6,0,50.1,0,74.9C322.8,288.2,319.3,288.2,315.1,288.2z"/>
	<path d="M245.5,246.2c7,0,13.7,0,20.6,0c0,3.3,0,6.5,0,10c-6.8,0-13.6,0-20.6,0C245.5,253,245.5,249.8,245.5,246.2z"/>
	<path d="M380.5,325.8c0,4.2-3.8,7.8-8,7.9c-4.2,0-7.7-3.6-7.6-8c0.1-4.6,3.3-7.8,7.8-7.7C377.2,318.1,380.5,321.5,380.5,325.8z"/>
	<path d="M145.9,325.8c0,4.3-3.3,7.7-7.5,7.8c-4.3,0.1-8.1-3.6-8.1-7.8c-0.1-4.6,3.6-7.9,8.3-7.8
		C142.9,318.1,145.9,321.4,145.9,325.8z"/>
	<path d="M372.6,181.7c-4.6,0-7.8-3.2-7.8-7.8c0-4.2,3.2-7.7,7.4-7.8c4.1-0.2,8,3.6,8.2,7.7C380.5,178.3,377.1,181.7,372.6,181.7z"
		/>
	<path d="M146,174.2c-0.1,4.4-3.7,7.8-8.1,7.6c-4.3-0.2-7.5-3.5-7.5-7.8c0-4.3,3.7-8.1,7.9-8C142.7,166.2,146.1,169.8,146,174.2z"/>
	<path class="st0" d="M144.9,278.7c0-8.9,0-15.9,0-23.2c4,0,9.5-2,10.8,2.3c1.6,5.4,1.4,11.8,0.1,17.3
		C155.5,276.9,149.3,277.4,144.9,278.7z"/>
	<path class="st0" d="M145,244.3c0-6.6,0-12.7,0-19.2c3.8,0.1,8.7-1.8,10,2.4c1.3,4.3,1.2,9.7-0.1,14.1
		C153.5,245.9,148.7,243.9,145,244.3z"/>
	<path class="st0" d="M103,229.5c1.7,11.5,3.4,22.9,5.2,34.8c-3.8,0-7.1,0-10.9,0c1.7-11.6,3.4-23.2,5.1-34.8
		C102.6,229.5,102.8,229.5,103,229.5z"/>
</g>
</svg>
