<?xml version="1.0" encoding="utf-8"?>
<!-- Generator: Adobe Illustrator 19.0.0, SVG Export Plug-In . SVG Version: 6.00 Build 0)  -->
<svg version="1.1" id="Layer_1" xmlns="http://www.w3.org/2000/svg" xmlns:xlink="http://www.w3.org/1999/xlink" x="0px" y="0px"
	 viewBox="0 0 511.6 511.6" style="enable-background:new 0 0 511.6 511.6;" xml:space="preserve">
<style type="text/css">
	.st0{fill:#FFFFFF;}
</style>
<g id="XMLID_4_">
	<path id="XMLID_116_" class="st0" d="M1.1,1.1c170.2,0,340.3,0,510.5,0c0,170.9,0,341.8,0,512.7c-170.2,0-340.3,0-510.5,0
		C1.1,342.9,1.1,172,1.1,1.1z M507.9,257.6C507.5,118.2,394.4,5.9,255.2,6.3C119,6.7,4.9,116.8,4.7,257.6
		c-0.2,140,112.8,252.1,252,251.7C395.7,509,508.3,396.1,507.9,257.6z"/>
	<path id="XMLID_113_" d="M507.9,257.6c0.4,138.5-112.2,251.4-251.1,251.7C117.5,509.6,4.6,397.5,4.7,257.6
		C4.9,116.8,119,6.7,255.2,6.3C394.4,5.9,507.5,118.2,507.9,257.6z M418.5,257.6C418.3,166.2,342.4,91.8,249,95.9
		c-87.9,3.8-155.4,76.9-154.8,163.4c0.6,88.2,72.4,161.8,164,160.6C350.3,418.6,418.9,343.8,418.5,257.6z"/>
	<path id="XMLID_110_" class="st0" d="M418.5,257.6c0.4,86.2-68.2,161-160.3,162.3c-91.7,1.2-163.4-72.4-164-160.6
		C93.6,172.7,161.1,99.7,249,95.9C342.4,91.8,418.3,166.2,418.5,257.6z M256.2,104.5c-84.7,0-153.4,68.7-153.5,153.5
		c-0.1,84.9,68.9,153.3,154.8,153.4c83,0.1,152.3-69.3,152.5-152.5C410.2,173.6,341.4,104.5,256.2,104.5z"/>
	<path id="XMLID_97_" d="M256.2,104.5c85.1,0,154,69.1,153.8,154.4c-0.2,83.2-69.6,152.6-152.5,152.5
		c-85.9-0.1-155-68.5-154.8-153.4C102.8,173.2,171.5,104.5,256.2,104.5z M243.6,382.1c7.9,0.2,10.7-2.5,10-9.9
		c-1.5-15.7-3.2-31.3-5.3-47c-1.2-9.1-12.4-13.1-18.7-6.7c-11.3,11.5-22.2,23.4-32.9,35.5c-4.3,4.8-3.3,11.6,1.4,14.2
		C212.7,376.2,228.4,380.5,243.6,382.1z M131,259.8c0.9,7.1,1.8,16,3.3,24.7c1.3,7.5,5.8,9.9,12.9,6.8c14-6.3,27.9-12.9,41.8-19.4
		c4.4-2,6.6-5.8,6.7-10.4c0.1-4.7-2.1-8.5-6.5-10.5c-14.5-6.6-28.9-13.3-43.5-19.5c-6.3-2.7-11.7,0.4-12.6,7.2
		C132.1,245.1,131.7,251.6,131,259.8z M247.2,147.3c0.2-0.1,0.4-0.1,0.6-0.2c-0.8-3.3-1.1-6.8-2.6-9.7c-0.9-1.7-4.1-3.3-6-3
		c-16.3,2.1-31.6,7.3-45.8,15.7c-6.2,3.7-7.5,9.6-2.4,14.7c11.1,11.2,22.5,22.1,33.8,33c3.3,3.2,7.4,4.5,12,2.7
		c4.7-1.9,7.1-5.3,7.5-10.3C245.2,175.8,246.2,161.5,247.2,147.3z M314.7,225.3c15.5-2.8,32.1-5.6,48.5-9c5.8-1.2,8.1-7.4,5.4-12.8
		c-7-14.3-16.3-26.9-28-37.6c-4.5-4.2-9.5-4.2-12.7,1c-8.6,14-17,28.2-24.8,42.6C299.2,216.8,305.5,225.5,314.7,225.3z M210.3,304.1
		c0.1-8.7-6.3-14.3-13.7-13.2c-4.5,0.7-8.8,1.9-13.2,2.9c-10.4,2.2-20.8,4.4-31.3,6.7c-8.5,1.9-10.9,6.8-7,14.4
		c7.4,14.3,17.3,26.6,29.3,37.4c3.3,3,6.2,2.5,9.1,0.2c1.6-1.3,2.9-3.2,4-5.1c7-12.7,13.9-25.4,20.8-38.1
		C209.4,307.4,210,305.1,210.3,304.1z M381.7,257.9c-1-8.2-1.8-16.6-3.1-25c-1.1-6.8-5.4-9.2-11.7-6.4c-14.5,6.5-29,13.1-43.2,20.3
		c-8.6,4.3-8.2,15.3,0.2,20.2c1.9,1.1,3.9,2,5.8,2.8c12.5,5.6,25,11.3,37.7,16.7c6.5,2.8,10.6,0.6,11.6-6.1
		C380.1,273,380.8,265.6,381.7,257.9z M195,228.6c9,0,15.3-8.5,11.6-15.5c-7.9-14.6-16.4-28.9-25.1-43.1c-3.2-5.3-8.5-5.1-13-0.8
		c-11.5,11.3-20.3,24.4-26.8,39.1c-2.6,5.9-0.9,9.7,5.3,11.4c4.7,1.2,9.5,1.9,14.3,2.8C172.9,224.7,184.5,226.8,195,228.6z
		 M270.1,133.8c-7.9-0.4-11.6,3.6-10.7,9.9c2.2,15.2,4.6,30.3,6.9,45.5c0.7,4.9,3.1,8.5,7.9,10c5.3,1.7,9.5-0.3,13-4.4
		c5-5.9,10.2-11.8,15.2-17.7c4.8-5.6,9.8-11.1,14.5-16.9c3.6-4.5,3.4-9.5-0.5-11.6C301.3,140.3,285.2,135.3,270.1,133.8z M265.5,368
		c-0.1,2.2-0.3,3.5-0.3,4.8c0,7.2,2.7,9.5,9.9,8.5c15.6-2.2,30.1-7.6,43.7-15.5c7-4.1,7.7-7.9,2-14c-10.3-10.9-20.9-21.6-31.3-32.5
		c-3.5-3.6-7.6-4.9-12.3-3.2c-4.9,1.7-7.7,5.4-8.1,10.6C267.7,340.8,266.6,354.8,265.5,368z M304.9,301.6c0.7,1.5,1.6,4.3,3,6.7
		c5.1,8.7,10.4,17.4,15.7,26.1c2.4,4,4.8,8.1,7.4,12c3.7,5.4,7.2,5.7,11.7,1.3c12-11.6,21.5-24.9,28.2-40.2
		c2.1-4.8,0.5-8.3-4.4-10.2c-1.3-0.5-2.8-0.8-4.2-1.1c-14.8-2.5-29.6-5-44.4-7.3C311.1,287.9,304.9,293.4,304.9,301.6z M291.9,258.3
		c0.1-19.9-15.4-36.2-34.8-36.3c-20.7-0.1-36.8,15.6-36.9,36c-0.1,19.2,16.1,35.6,35.5,35.9C275.3,294.2,291.8,278,291.9,258.3z"/>
	<path id="XMLID_96_" class="st0" d="M243.6,382.1c-15.1-1.5-30.9-5.9-45.5-13.9c-4.7-2.6-5.7-9.4-1.4-14.2
		c10.7-12.1,21.6-24,32.9-35.5c6.3-6.4,17.5-2.4,18.7,6.7c2.1,15.6,3.8,31.3,5.3,47C254.2,379.6,251.5,382.3,243.6,382.1z"/>
	<path id="XMLID_95_" class="st0" d="M131,259.8c0.7-8.3,1.1-14.8,2-21.2c0.9-6.8,6.3-9.9,12.6-7.2c14.6,6.3,29,12.9,43.5,19.5
		c4.4,2,6.6,5.8,6.5,10.5c-0.1,4.6-2.3,8.4-6.7,10.4c-13.9,6.5-27.8,13.1-41.8,19.4c-7.1,3.2-11.6,0.8-12.9-6.8
		C132.8,275.8,131.9,267,131,259.8z"/>
	<path id="XMLID_94_" class="st0" d="M247.2,147.3c-1,14.3-2,28.5-3,42.8c-0.3,5.1-2.8,8.5-7.5,10.3c-4.6,1.8-8.6,0.6-12-2.7
		c-11.4-10.9-22.7-21.8-33.8-33c-5.1-5.1-3.8-11,2.4-14.7c14.2-8.4,29.5-13.6,45.8-15.7c1.9-0.2,5.1,1.4,6,3
		c1.6,2.8,1.8,6.4,2.6,9.7C247.6,147.1,247.4,147.2,247.2,147.3z"/>
	<path id="XMLID_93_" class="st0" d="M314.7,225.3c-9.2,0.2-15.5-8.6-11.6-15.9c7.8-14.5,16.2-28.6,24.8-42.6
		c3.2-5.1,8.1-5.1,12.7-1c11.7,10.8,21,23.3,28,37.6c2.7,5.5,0.4,11.6-5.4,12.8C346.8,219.7,330.3,222.5,314.7,225.3z"/>
	<path id="XMLID_92_" class="st0" d="M210.3,304.1c-0.4,1-1,3.2-2,5.3c-6.8,12.7-13.8,25.4-20.8,38.1c-1,1.9-2.3,3.7-4,5.1
		c-2.9,2.4-5.8,2.8-9.1-0.2c-12-10.8-21.9-23.1-29.3-37.4c-3.9-7.6-1.6-12.6,7-14.4c10.4-2.3,20.8-4.5,31.3-6.7
		c4.4-0.9,8.8-2.1,13.2-2.9C204,289.8,210.5,295.5,210.3,304.1z"/>
	<path id="XMLID_91_" class="st0" d="M381.7,257.9c-0.9,7.7-1.6,15.1-2.7,22.4c-1,6.7-5.1,8.9-11.6,6.1
		c-12.6-5.4-25.1-11.1-37.7-16.7c-2-0.9-4-1.8-5.8-2.8c-8.4-4.8-8.8-15.8-0.2-20.2c14.2-7.2,28.6-13.8,43.2-20.3
		c6.3-2.8,10.7-0.4,11.7,6.4C379.9,241.2,380.7,249.7,381.7,257.9z"/>
	<path id="XMLID_90_" class="st0" d="M195,228.6c-10.6-1.9-22.1-3.9-33.7-6c-4.8-0.9-9.6-1.6-14.3-2.8c-6.3-1.7-8-5.5-5.3-11.4
		c6.5-14.7,15.3-27.9,26.8-39.1c4.5-4.4,9.7-4.5,13,0.8c8.7,14.1,17.2,28.4,25.1,43.1C210.3,220.2,204.1,228.6,195,228.6z"/>
	<path id="XMLID_89_" class="st0" d="M270.1,133.8c15.1,1.5,31.2,6.4,46.2,14.8c3.9,2.2,4.1,7.2,0.5,11.6
		c-4.7,5.8-9.6,11.3-14.5,16.9c-5.1,5.9-10.2,11.7-15.2,17.7c-3.5,4.1-7.7,6-13,4.4c-4.8-1.5-7.2-5.1-7.9-10
		c-2.3-15.2-4.7-30.3-6.9-45.5C258.4,137.4,262.2,133.5,270.1,133.8z"/>
	<path id="XMLID_88_" class="st0" d="M265.5,368c1.1-13.1,2.3-27.2,3.5-41.3c0.5-5.2,3.2-8.8,8.1-10.6c4.7-1.7,8.8-0.4,12.3,3.2
		c10.4,10.8,21,21.5,31.3,32.5c5.7,6,5,9.9-2,14c-13.6,7.9-28.1,13.3-43.7,15.5c-7.1,1-9.9-1.3-9.9-8.5
		C265.2,371.5,265.3,370.2,265.5,368z"/>
	<path id="XMLID_87_" class="st0" d="M304.9,301.6c0-8.2,6.2-13.7,13-12.6c14.8,2.4,29.6,4.9,44.4,7.3c1.4,0.2,2.9,0.6,4.2,1.1
		c4.9,1.8,6.4,5.4,4.4,10.2c-6.7,15.3-16.1,28.7-28.2,40.2c-4.6,4.4-8.1,4.1-11.7-1.3c-2.6-3.9-5-8-7.4-12
		c-5.3-8.7-10.5-17.3-15.7-26.1C306.5,305.9,305.6,303.1,304.9,301.6z"/>
	<path id="XMLID_84_" class="st0" d="M291.9,258.3c-0.1,19.7-16.6,35.9-36.2,35.6c-19.4-0.3-35.6-16.7-35.5-35.9
		c0.1-20.4,16.2-36.1,36.9-36C276.5,222.1,292.1,238.4,291.9,258.3z M284.6,257.7c-0.1-15.5-12.9-28.1-28.6-28
		c-15.3,0.1-28,12.7-28.1,28c-0.1,15.3,13.1,28.5,28.4,28.4C271.6,286.1,284.6,273,284.6,257.7z"/>
	<path id="XMLID_83_" d="M284.6,257.7c0.1,15.3-12.9,28.4-28.3,28.5c-15.2,0.1-28.4-13.2-28.4-28.4c0.1-15.3,12.7-27.9,28.1-28
		C271.6,229.6,284.5,242.2,284.6,257.7z"/>
</g>
</svg>
