<?xml version="1.0" encoding="utf-8"?>
<!-- Generator: Adobe Illustrator 19.0.0, SVG Export Plug-In . SVG Version: 6.00 Build 0)  -->
<svg version="1.1" id="Layer_1" xmlns="http://www.w3.org/2000/svg" xmlns:xlink="http://www.w3.org/1999/xlink" x="0px" y="0px"
	 viewBox="0 0 511.6 511.6" style="enable-background:new 0 0 511.6 511.6;" xml:space="preserve">
<g id="XMLID_4_">
	
	<path id="XMLID_113_" d="M507.9,257.6c0.4,138.5-112.2,251.4-251.1,251.7C117.5,509.6,4.6,397.5,4.7,257.6
		C4.9,116.8,119,6.7,255.2,6.3C394.4,5.9,507.5,118.2,507.9,257.6z M418.5,257.6C418.3,166.2,342.4,91.8,249,95.9
		c-87.9,3.8-155.4,76.9-154.8,163.4c0.6,88.2,72.4,161.8,164,160.6C350.3,418.6,418.9,343.8,418.5,257.6z"/>

	<path id="XMLID_97_" d="M256.2,104.5c85.1,0,154,69.1,153.8,154.4c-0.2,83.2-69.6,152.6-152.5,152.5
		c-85.9-0.1-155-68.5-154.8-153.4C102.8,173.2,171.5,104.5,256.2,104.5z M243.6,382.1c7.9,0.2,10.7-2.5,10-9.9
		c-1.5-15.7-3.2-31.3-5.3-47c-1.2-9.1-12.4-13.1-18.7-6.7c-11.3,11.5-22.2,23.4-32.9,35.5c-4.3,4.8-3.3,11.6,1.4,14.2
		C212.7,376.2,228.4,380.5,243.6,382.1z M131,259.8c0.9,7.1,1.8,16,3.3,24.7c1.3,7.5,5.8,9.9,12.9,6.8c14-6.3,27.9-12.9,41.8-19.4
		c4.4-2,6.6-5.8,6.7-10.4c0.1-4.7-2.1-8.5-6.5-10.5c-14.5-6.6-28.9-13.3-43.5-19.5c-6.3-2.7-11.7,0.4-12.6,7.2
		C132.1,245.1,131.7,251.6,131,259.8z M247.2,147.3c0.2-0.1,0.4-0.1,0.6-0.2c-0.8-3.3-1.1-6.8-2.6-9.7c-0.9-1.7-4.1-3.3-6-3
		c-16.3,2.1-31.6,7.3-45.8,15.7c-6.2,3.7-7.5,9.6-2.4,14.7c11.1,11.2,22.5,22.1,33.8,33c3.3,3.2,7.4,4.5,12,2.7
		c4.7-1.9,7.1-5.3,7.5-10.3C245.2,175.8,246.2,161.5,247.2,147.3z M314.7,225.3c15.5-2.8,32.1-5.6,48.5-9c5.8-1.2,8.1-7.4,5.4-12.8
		c-7-14.3-16.3-26.9-28-37.6c-4.5-4.2-9.5-4.2-12.7,1c-8.6,14-17,28.2-24.8,42.6C299.2,216.8,305.5,225.5,314.7,225.3z M210.3,304.1
		c0.1-8.7-6.3-14.3-13.7-13.2c-4.5,0.7-8.8,1.9-13.2,2.9c-10.4,2.2-20.8,4.4-31.3,6.7c-8.5,1.9-10.9,6.8-7,14.4
		c7.4,14.3,17.3,26.6,29.3,37.4c3.3,3,6.2,2.5,9.1,0.2c1.6-1.3,2.9-3.2,4-5.1c7-12.7,13.9-25.4,20.8-38.1
		C209.4,307.4,210,305.1,210.3,304.1z M381.7,257.9c-1-8.2-1.8-16.6-3.1-25c-1.1-6.8-5.4-9.2-11.7-6.4c-14.5,6.5-29,13.1-43.2,20.3
		c-8.6,4.3-8.2,15.3,0.2,20.2c1.9,1.1,3.9,2,5.8,2.8c12.5,5.6,25,11.3,37.7,16.7c6.5,2.8,10.6,0.6,11.6-6.1
		C380.1,273,380.8,265.6,381.7,257.9z M195,228.6c9,0,15.3-8.5,11.6-15.5c-7.9-14.6-16.4-28.9-25.1-43.1c-3.2-5.3-8.5-5.1-13-0.8
		c-11.5,11.3-20.3,24.4-26.8,39.1c-2.6,5.9-0.9,9.7,5.3,11.4c4.7,1.2,9.5,1.9,14.3,2.8C172.9,224.7,184.5,226.8,195,228.6z
		 M270.1,133.8c-7.9-0.4-11.6,3.6-10.7,9.9c2.2,15.2,4.6,30.3,6.9,45.5c0.7,4.9,3.1,8.5,7.9,10c5.3,1.7,9.5-0.3,13-4.4
		c5-5.9,10.2-11.8,15.2-17.7c4.8-5.6,9.8-11.1,14.5-16.9c3.6-4.5,3.4-9.5-0.5-11.6C301.3,140.3,285.2,135.3,270.1,133.8z M265.5,368
		c-0.1,2.2-0.3,3.5-0.3,4.8c0,7.2,2.7,9.5,9.9,8.5c15.6-2.2,30.1-7.6,43.7-15.5c7-4.1,7.7-7.9,2-14c-10.3-10.9-20.9-21.6-31.3-32.5
		c-3.5-3.6-7.6-4.9-12.3-3.2c-4.9,1.7-7.7,5.4-8.1,10.6C267.7,340.8,266.6,354.8,265.5,368z M304.9,301.6c0.7,1.5,1.6,4.3,3,6.7
		c5.1,8.7,10.4,17.4,15.7,26.1c2.4,4,4.8,8.1,7.4,12c3.7,5.4,7.2,5.7,11.7,1.3c12-11.6,21.5-24.9,28.2-40.2
		c2.1-4.8,0.5-8.3-4.4-10.2c-1.3-0.5-2.8-0.8-4.2-1.1c-14.8-2.5-29.6-5-44.4-7.3C311.1,287.9,304.9,293.4,304.9,301.6z M291.9,258.3
		c0.1-19.9-15.4-36.2-34.8-36.3c-20.7-0.1-36.8,15.6-36.9,36c-0.1,19.2,16.1,35.6,35.5,35.9C275.3,294.2,291.8,278,291.9,258.3z"/>

</g>
</svg>
