<?xml version="1.0" standalone="no"?>
<!DOCTYPE svg PUBLIC "-//W3C//DTD SVG 20010904//EN"
 "http://www.w3.org/TR/2001/REC-SVG-20010904/DTD/svg10.dtd">
<svg version="1.0" xmlns="http://www.w3.org/2000/svg"
 width="512.000000pt" height="512.000000pt" viewBox="0 0 512.000000 512.000000"
 preserveAspectRatio="xMidYMid meet">
<metadata>
Created by potrace 1.11, written by Peter Selinger 2001-2013
</metadata>
<g transform="translate(0.000000,512.000000) scale(0.100000,-0.100000)"
fill="#000000" stroke="none">
<path d="M0 2560 l0 -2560 2560 0 2560 0 0 2560 0 2560 -2560 0 -2560 0 0
-2560z m4756 1370 c34 -13 43 -39 50 -137 7 -86 -8 -218 -27 -255 -19 -37 -50
-42 -279 -49 -202 -6 -234 -9 -315 -33 -49 -14 -124 -36 -165 -47 -81 -23
-190 -89 -241 -147 -32 -36 -97 -159 -110 -207 -55 -200 -59 -223 -59 -320 0
-76 6 -118 24 -175 29 -95 66 -167 103 -202 55 -53 264 -85 623 -98 356 -13
361 -14 376 -35 11 -15 14 -67 14 -231 0 -276 13 -257 -187 -264 -352 -12
-758 19 -961 74 -104 28 -153 53 -248 129 -98 78 -140 150 -186 320 -21 78
-38 155 -38 172 0 17 -7 55 -16 84 -23 80 -13 247 35 551 38 237 132 492 220
597 39 47 130 124 179 151 247 138 282 144 806 136 209 -3 389 -10 402 -14z
m-4266 -991 c70 -15 76 -30 90 -269 6 -107 16 -213 21 -235 5 -22 9 -71 9
-110 l1 -70 33 85 c49 126 91 212 131 264 19 25 35 50 35 56 0 13 98 75 140
88 77 24 161 25 249 2 112 -28 128 -38 201 -117 72 -79 115 -157 124 -228 11
-78 21 -83 35 -18 32 151 91 263 195 373 58 62 79 77 142 102 77 29 302 68
397 68 69 0 232 -34 264 -55 58 -38 108 -93 130 -145 14 -30 33 -67 44 -82 25
-34 72 -173 93 -270 21 -102 40 -412 27 -467 -15 -67 -14 -66 -173 -77 -151
-11 -158 -3 -178 186 -21 202 -56 307 -133 401 -74 90 -146 107 -297 71 -125
-30 -148 -46 -191 -131 -36 -73 -36 -76 -43 -234 -4 -89 -11 -169 -17 -178 -5
-10 -9 -42 -9 -71 0 -29 -4 -59 -8 -65 -12 -18 -95 -40 -182 -48 -41 -4 -103
-11 -137 -16 -68 -10 -89 -6 -104 22 -5 11 -16 86 -24 167 -16 164 -22 193
-61 260 -53 93 -87 112 -198 112 -86 0 -106 -12 -142 -82 -55 -109 -74 -199
-74 -355 0 -127 -2 -145 -19 -162 -27 -27 -120 -35 -387 -33 -93 1 -107 10
-123 83 -19 85 -40 284 -51 484 -15 300 -17 318 -39 481 -13 95 -18 161 -13
175 17 44 131 62 242 38z"/>
</g>
</svg>
